<svg xmlns="http://www.w3.org/2000/svg" xmlns:xlink="http://www.w3.org/1999/xlink" width="1400" height="720" viewBox="0 0 1400 720" role="img" aria-labelledby="title desc">
<title id="title">Trustworthy application-level architecture</title>
<desc id="desc">Classical-first staffing architecture with evidence gate, optional pilot, independent evaluation, and fallback.</desc>
<defs><marker id="arrow" viewBox="0 0 10 10" refX="8" refY="5" markerWidth="7" markerHeight="7" orient="auto"><path d="M0 0 L10 5 L0 10 Z" fill="#536273"/></marker></defs>
<rect x="0" y="0" width="1400" height="720" fill="#FFFFFF"/>
<text id="text-1" x="50" y="48" font-family="Arial,Helvetica,sans-serif" font-size="32" font-weight="700" fill="#18324A" text-anchor="start" data-containment="free">Trustworthy application-level architecture</text>
<text id="text-2" x="50" y="82" font-family="Arial,Helvetica,sans-serif" font-size="26" font-weight="400" fill="#536273" text-anchor="start" data-containment="free">Solid paths are implemented in the frozen audit; dashed actions are architectural extensions.</text>
<line x1="250" y1="260" x2="300" y2="260" stroke="#536273" stroke-width="3" stroke-linecap="round" marker-end="url(#arrow)"/>
<line x1="550" y1="260" x2="600" y2="260" stroke="#536273" stroke-width="3" stroke-linecap="round" marker-end="url(#arrow)"/>
<line x1="850" y1="260" x2="900" y2="260" stroke="#536273" stroke-width="3" stroke-linecap="round" marker-end="url(#arrow)"/>
<line x1="1150" y1="260" x2="1200" y2="260" stroke="#536273" stroke-width="3" stroke-linecap="round" marker-end="url(#arrow)"/>
<line x1="725" y1="390" x2="725" y2="470" stroke="#536273" stroke-width="3" stroke-linecap="round" marker-end="url(#arrow)"/>
<line x1="1000" y1="390" x2="1000" y2="470" stroke="#536273" stroke-width="3" stroke-linecap="round" marker-end="url(#arrow)"/>
<path d="M 1260 390 C 1260 610 500 610 500 390" fill="none" stroke="#D97745" stroke-width="4" stroke-linecap="round" stroke-linejoin="round" marker-end="url(#arrow)"/>
<rect x="40" y="150" width="210" height="240" rx="18" fill="#EAF0FF" stroke="#CBD5E1" stroke-width="2" id="problem"/>
<rect x="54" y="166" width="6" height="208" rx="3" fill="#315EFB" stroke="#315EFB" stroke-width="0"/>
<text id="text-3" x="74" y="200" font-family="Arial,Helvetica,sans-serif" font-size="28" font-weight="700" fill="#18324A" text-anchor="start" data-container="problem" data-padding="14">Staffing</text>
<text id="text-4" x="74" y="244" font-family="Arial,Helvetica,sans-serif" font-size="26" font-weight="400" fill="#536273" text-anchor="start" data-container="problem" data-padding="14"><tspan x="74" dy="0">service / cost</tspan><tspan x="74" dy="32.5">review cap.</tspan><tspan x="74" dy="32.5">joint shocks</tspan></text>
<g opacity="0.88">
<g transform="translate(168 308) scale(0.12109375 0.12109375)">



<circle cx="130" cy="205.0" r="13.75" fill="#FFFFFF" stroke="#18324A" stroke-width="5.0"/>
<path d="M 100.0 270.0 Q 130 225.0 160.0 270.0" fill="none" stroke="#18324A" stroke-width="5.0" stroke-linecap="round" stroke-linejoin="round"/>
<rect x="347.0" y="195.0" width="70.0" height="70.0" rx="10.0" fill="#EAF0FF" stroke="#315EFB" stroke-width="5.0"/>
<line x1="334.5" y1="207.5" x2="347.0" y2="207.5" stroke="#315EFB" stroke-width="3.75" stroke-linecap="round"/>
<line x1="417.0" y1="207.5" x2="429.5" y2="207.5" stroke="#315EFB" stroke-width="3.75" stroke-linecap="round"/>
<line x1="334.5" y1="230.0" x2="347.0" y2="230.0" stroke="#315EFB" stroke-width="3.75" stroke-linecap="round"/>
<line x1="417.0" y1="230.0" x2="429.5" y2="230.0" stroke="#315EFB" stroke-width="3.75" stroke-linecap="round"/>
<line x1="334.5" y1="252.5" x2="347.0" y2="252.5" stroke="#315EFB" stroke-width="3.75" stroke-linecap="round"/>
<line x1="417.0" y1="252.5" x2="429.5" y2="252.5" stroke="#315EFB" stroke-width="3.75" stroke-linecap="round"/>
<circle cx="369.5" cy="220.0" r="5.0" fill="#315EFB" stroke="#315EFB" stroke-width="1"/>
<circle cx="394.5" cy="220.0" r="5.0" fill="#315EFB" stroke="#315EFB" stroke-width="1"/>
<line x1="369.5" y1="242.5" x2="394.5" y2="242.5" stroke="#315EFB" stroke-width="3.75" stroke-linecap="round"/>
<circle cx="256" cy="315" r="54" fill="#FFF3EC" stroke="#14877D" stroke-width="5"/>
<circle cx="238" cy="305.12" r="6.82" fill="#FFFFFF" stroke="#14877D" stroke-width="2.48"/>
<path d="M 223.12 337.36 Q 238 315.04 252.88 337.36" fill="none" stroke="#14877D" stroke-width="2.48" stroke-linecap="round" stroke-linejoin="round"/>
<rect x="262.6" y="304.6" width="30.800000000000004" height="30.800000000000004" rx="4.4" fill="#EAF0FF" stroke="#14877D" stroke-width="2.2"/>
<line x1="257.1" y1="310.1" x2="262.6" y2="310.1" stroke="#14877D" stroke-width="1.6500000000000001" stroke-linecap="round"/>
<line x1="293.4" y1="310.1" x2="298.9" y2="310.1" stroke="#14877D" stroke-width="1.6500000000000001" stroke-linecap="round"/>
<line x1="257.1" y1="320.0" x2="262.6" y2="320.0" stroke="#14877D" stroke-width="1.6500000000000001" stroke-linecap="round"/>
<line x1="293.4" y1="320.0" x2="298.9" y2="320.0" stroke="#14877D" stroke-width="1.6500000000000001" stroke-linecap="round"/>
<line x1="257.1" y1="329.9" x2="262.6" y2="329.9" stroke="#14877D" stroke-width="1.6500000000000001" stroke-linecap="round"/>
<line x1="293.4" y1="329.9" x2="298.9" y2="329.9" stroke="#14877D" stroke-width="1.6500000000000001" stroke-linecap="round"/>
<circle cx="272.5" cy="315.6" r="2.2" fill="#14877D" stroke="#14877D" stroke-width="1"/>
<circle cx="283.5" cy="315.6" r="2.2" fill="#14877D" stroke="#14877D" stroke-width="1"/>
<line x1="272.5" y1="325.5" x2="283.5" y2="325.5" stroke="#14877D" stroke-width="1.6500000000000001" stroke-linecap="round"/>
<path d="M 174 250 C 205 275 218 289 226 301" fill="none" stroke="#14877D" stroke-width="5" stroke-linecap="round" stroke-linejoin="round"/>
<path d="M 338 250 C 307 275 294 289 286 301" fill="none" stroke="#14877D" stroke-width="5" stroke-linecap="round" stroke-linejoin="round"/>
</g>
</g>
<rect x="300" y="150" width="250" height="240" rx="18" fill="#F5F7FB" stroke="#CBD5E1" stroke-width="2" id="classical"/>
<rect x="314" y="166" width="6" height="208" rx="3" fill="#315EFB" stroke="#315EFB" stroke-width="0"/>
<text id="text-5" x="334" y="200" font-family="Arial,Helvetica,sans-serif" font-size="28" font-weight="700" fill="#18324A" text-anchor="start" data-container="classical" data-padding="14">Classical first</text>
<text id="text-6" x="334" y="244" font-family="Arial,Helvetica,sans-serif" font-size="26" font-weight="400" fill="#536273" text-anchor="start" data-container="classical" data-padding="14"><tspan x="334" dy="0">greedy + cluster</tspan><tspan x="334" dy="32.5">repair</tspan><tspan x="334" dy="32.5">feasible plan</tspan></text>
<g opacity="0.88">
<g transform="translate(468 308) scale(0.12109375 0.12109375)">



<rect x="70" y="120" width="150" height="220" rx="10" fill="#FFFFFF" stroke="#315EFB" stroke-width="4"/>
<circle cx="95" cy="150" r="6" fill="#315EFB" stroke="#315EFB" stroke-width="1"/>
<line x1="115" y1="150" x2="200" y2="150" stroke="#315EFB" stroke-width="4" stroke-linecap="round"/>
<circle cx="95" cy="182" r="6" fill="#315EFB" stroke="#315EFB" stroke-width="1"/>
<line x1="115" y1="182" x2="200" y2="182" stroke="#315EFB" stroke-width="4" stroke-linecap="round"/>
<circle cx="95" cy="214" r="6" fill="#315EFB" stroke="#315EFB" stroke-width="1"/>
<line x1="115" y1="214" x2="200" y2="214" stroke="#315EFB" stroke-width="4" stroke-linecap="round"/>
<rect x="292" y="120" width="150" height="220" rx="10" fill="#FFFFFF" stroke="#14877D" stroke-width="4"/>
<circle cx="317" cy="150" r="6" fill="#14877D" stroke="#14877D" stroke-width="1"/>
<line x1="337" y1="150" x2="422" y2="150" stroke="#14877D" stroke-width="4" stroke-linecap="round"/>
<circle cx="317" cy="182" r="6" fill="#14877D" stroke="#14877D" stroke-width="1"/>
<line x1="337" y1="182" x2="422" y2="182" stroke="#14877D" stroke-width="4" stroke-linecap="round"/>
<circle cx="317" cy="214" r="6" fill="#14877D" stroke="#14877D" stroke-width="1"/>
<line x1="337" y1="214" x2="422" y2="214" stroke="#14877D" stroke-width="4" stroke-linecap="round"/>
<circle cx="255" cy="305" r="70" fill="#FFFFFF" stroke="#18324A" stroke-width="7"/>
<line x1="307" y1="357" x2="382" y2="432" stroke="#18324A" stroke-width="14" stroke-linecap="round"/>
<path d="M 225 305 L 247 327 L 289 277" fill="none" stroke="#D97745" stroke-width="8" stroke-linecap="round" stroke-linejoin="round"/>
</g>
</g>
<rect x="600" y="150" width="250" height="240" rx="18" fill="#FFF3EC" stroke="#CBD5E1" stroke-width="2" id="gate"/>
<rect x="614" y="166" width="6" height="208" rx="3" fill="#D97745" stroke="#D97745" stroke-width="0"/>
<text id="text-7" x="634" y="200" font-family="Arial,Helvetica,sans-serif" font-size="28" font-weight="700" fill="#18324A" text-anchor="start" data-container="gate" data-padding="14">Evidence gate</text>
<text id="text-8" x="634" y="244" font-family="Arial,Helvetica,sans-serif" font-size="26" font-weight="400" fill="#536273" text-anchor="start" data-container="gate" data-padding="14"><tspan x="634" dy="0">core / headroom</tspan><tspan x="634" dy="32.5">ambiguity / value</tspan></text>
<g opacity="0.88">
<g transform="translate(768 308) scale(0.12109375 0.12109375)">



<circle cx="115" cy="105" r="34" fill="#FFFFFF" stroke="#14877D" stroke-width="6"/>
<circle cx="256" cy="105" r="34" fill="#FFFFFF" stroke="#315EFB" stroke-width="6"/>
<circle cx="397" cy="105" r="34" fill="#FFFFFF" stroke="#D97745" stroke-width="6"/>
<path d="M 75 165 L 437 165 L 320 330 L 320 402 L 192 402 L 192 330 Z" fill="#EAF0FF" stroke="#18324A" stroke-width="6" stroke-linecap="round" stroke-linejoin="round"/>
<line x1="115" y1="140" x2="180" y2="220" stroke="#14877D" stroke-width="5" stroke-linecap="round"/>
<line x1="256" y1="140" x2="256" y2="250" stroke="#315EFB" stroke-width="5" stroke-linecap="round"/>
<line x1="397" y1="140" x2="332" y2="220" stroke="#D97745" stroke-width="5" stroke-linecap="round"/>
</g>
</g>
<rect x="900" y="150" width="250" height="240" rx="18" fill="#EAF0FF" stroke="#CBD5E1" stroke-width="2" id="pilot"/>
<rect x="914" y="166" width="6" height="208" rx="3" fill="#14877D" stroke="#14877D" stroke-width="0"/>
<text id="text-9" x="934" y="200" font-family="Arial,Helvetica,sans-serif" font-size="28" font-weight="700" fill="#18324A" text-anchor="start" data-container="pilot" data-padding="14">Quantum pilot</text>
<text id="text-10" x="934" y="244" font-family="Arial,Helvetica,sans-serif" font-size="26" font-weight="400" fill="#536273" text-anchor="start" data-container="pilot" data-padding="14"><tspan x="934" dy="0">retained states</tspan><tspan x="934" dy="32.5">matched draws</tspan></text>
<g opacity="0.88">
<g transform="translate(1068 308) scale(0.12109375 0.12109375)">



<circle cx="95" cy="150" r="12" fill="#FFFFFF" stroke="#315EFB" stroke-width="4"/>
<line x1="107" y1="150" x2="145" y2="150" stroke="#CBD5E1" stroke-width="3" stroke-linecap="round"/>
<line x1="95" y1="162" x2="95" y2="200" stroke="#CBD5E1" stroke-width="3" stroke-linecap="round"/>
<circle cx="95" cy="212" r="12" fill="#FFFFFF" stroke="#CBD5E1" stroke-width="4"/>
<line x1="107" y1="212" x2="145" y2="212" stroke="#CBD5E1" stroke-width="3" stroke-linecap="round"/>
<line x1="95" y1="224" x2="95" y2="262" stroke="#CBD5E1" stroke-width="3" stroke-linecap="round"/>
<circle cx="95" cy="274" r="12" fill="#FFFFFF" stroke="#CBD5E1" stroke-width="4"/>
<line x1="107" y1="274" x2="145" y2="274" stroke="#CBD5E1" stroke-width="3" stroke-linecap="round"/>
<line x1="95" y1="286" x2="95" y2="324" stroke="#CBD5E1" stroke-width="3" stroke-linecap="round"/>
<circle cx="95" cy="336" r="12" fill="#FFFFFF" stroke="#315EFB" stroke-width="4"/>
<line x1="107" y1="336" x2="145" y2="336" stroke="#CBD5E1" stroke-width="3" stroke-linecap="round"/>
<circle cx="157" cy="150" r="12" fill="#FFFFFF" stroke="#CBD5E1" stroke-width="4"/>
<line x1="169" y1="150" x2="207" y2="150" stroke="#CBD5E1" stroke-width="3" stroke-linecap="round"/>
<line x1="157" y1="162" x2="157" y2="200" stroke="#CBD5E1" stroke-width="3" stroke-linecap="round"/>
<circle cx="157" cy="212" r="12" fill="#FFFFFF" stroke="#CBD5E1" stroke-width="4"/>
<line x1="169" y1="212" x2="207" y2="212" stroke="#CBD5E1" stroke-width="3" stroke-linecap="round"/>
<line x1="157" y1="224" x2="157" y2="262" stroke="#CBD5E1" stroke-width="3" stroke-linecap="round"/>
<circle cx="157" cy="274" r="12" fill="#FFFFFF" stroke="#315EFB" stroke-width="4"/>
<line x1="169" y1="274" x2="207" y2="274" stroke="#CBD5E1" stroke-width="3" stroke-linecap="round"/>
<line x1="157" y1="286" x2="157" y2="324" stroke="#CBD5E1" stroke-width="3" stroke-linecap="round"/>
<circle cx="157" cy="336" r="12" fill="#FFFFFF" stroke="#CBD5E1" stroke-width="4"/>
<line x1="169" y1="336" x2="207" y2="336" stroke="#CBD5E1" stroke-width="3" stroke-linecap="round"/>
<circle cx="219" cy="150" r="12" fill="#FFFFFF" stroke="#CBD5E1" stroke-width="4"/>
<line x1="231" y1="150" x2="269" y2="150" stroke="#CBD5E1" stroke-width="3" stroke-linecap="round"/>
<line x1="219" y1="162" x2="219" y2="200" stroke="#CBD5E1" stroke-width="3" stroke-linecap="round"/>
<circle cx="219" cy="212" r="12" fill="#FFFFFF" stroke="#315EFB" stroke-width="4"/>
<line x1="231" y1="212" x2="269" y2="212" stroke="#CBD5E1" stroke-width="3" stroke-linecap="round"/>
<line x1="219" y1="224" x2="219" y2="262" stroke="#CBD5E1" stroke-width="3" stroke-linecap="round"/>
<circle cx="219" cy="274" r="12" fill="#FFFFFF" stroke="#CBD5E1" stroke-width="4"/>
<line x1="231" y1="274" x2="269" y2="274" stroke="#CBD5E1" stroke-width="3" stroke-linecap="round"/>
<line x1="219" y1="286" x2="219" y2="324" stroke="#CBD5E1" stroke-width="3" stroke-linecap="round"/>
<circle cx="219" cy="336" r="12" fill="#FFFFFF" stroke="#CBD5E1" stroke-width="4"/>
<line x1="231" y1="336" x2="269" y2="336" stroke="#CBD5E1" stroke-width="3" stroke-linecap="round"/>
<circle cx="281" cy="150" r="12" fill="#FFFFFF" stroke="#315EFB" stroke-width="4"/>
<line x1="281" y1="162" x2="281" y2="200" stroke="#CBD5E1" stroke-width="3" stroke-linecap="round"/>
<circle cx="281" cy="212" r="12" fill="#FFFFFF" stroke="#CBD5E1" stroke-width="4"/>
<line x1="281" y1="224" x2="281" y2="262" stroke="#CBD5E1" stroke-width="3" stroke-linecap="round"/>
<circle cx="281" cy="274" r="12" fill="#FFFFFF" stroke="#CBD5E1" stroke-width="4"/>
<line x1="281" y1="286" x2="281" y2="324" stroke="#CBD5E1" stroke-width="3" stroke-linecap="round"/>
<circle cx="281" cy="336" r="12" fill="#FFFFFF" stroke="#315EFB" stroke-width="4"/>
<circle cx="385" cy="250" r="54" fill="#FFFFFF" stroke="#14877D" stroke-width="5"/>
<path d="M 325 250 C 340 190 430 190 445 250 C 430 310 340 310 325 250" fill="none" stroke="#14877D" stroke-width="4" stroke-linecap="round" stroke-linejoin="round"/>
<path d="M 385 188 C 330 215 330 285 385 312 C 440 285 440 215 385 188" fill="none" stroke="#14877D" stroke-width="4" stroke-linecap="round" stroke-linejoin="round"/>
<circle cx="385" cy="250" r="8" fill="#D97745" stroke="#D97745" stroke-width="1"/>
</g>
</g>
<rect x="1180" y="150" width="180" height="240" rx="18" fill="#F5F7FB" stroke="#CBD5E1" stroke-width="2" id="certificate"/>
<rect x="1194" y="166" width="6" height="208" rx="3" fill="#14877D" stroke="#14877D" stroke-width="0"/>
<text id="text-11" x="1214" y="200" font-family="Arial,Helvetica,sans-serif" font-size="28" font-weight="700" fill="#18324A" text-anchor="start" data-container="certificate" data-padding="14">Verify</text>
<text id="text-12" x="1214" y="244" font-family="Arial,Helvetica,sans-serif" font-size="26" font-weight="400" fill="#536273" text-anchor="start" data-container="certificate" data-padding="14"><tspan x="1214" dy="0">tests</tspan><tspan x="1214" dy="32.5">accept/stop</tspan></text>
<g opacity="0.88">
<g transform="translate(1278 308) scale(0.12109375 0.12109375)">



<rect x="95" y="90" width="270" height="310" rx="10" fill="#FFFFFF" stroke="#14877D" stroke-width="4"/>
<circle cx="120" cy="120" r="6" fill="#14877D" stroke="#14877D" stroke-width="1"/>
<line x1="140" y1="120" x2="345" y2="120" stroke="#14877D" stroke-width="4" stroke-linecap="round"/>
<circle cx="120" cy="152" r="6" fill="#14877D" stroke="#14877D" stroke-width="1"/>
<line x1="140" y1="152" x2="345" y2="152" stroke="#14877D" stroke-width="4" stroke-linecap="round"/>
<circle cx="120" cy="184" r="6" fill="#14877D" stroke="#14877D" stroke-width="1"/>
<line x1="140" y1="184" x2="345" y2="184" stroke="#14877D" stroke-width="4" stroke-linecap="round"/>
<circle cx="340" cy="315" r="78" fill="#FFFFFF" stroke="#18324A" stroke-width="8"/>
<line x1="395" y1="370" x2="452" y2="427" stroke="#18324A" stroke-width="16" stroke-linecap="round"/>
<path d="M 305 315 L 330 340 L 380 285" fill="none" stroke="#14877D" stroke-width="9" stroke-linecap="round" stroke-linejoin="round"/>
</g>
</g>
<rect x="595" y="470" width="260" height="150" rx="18" fill="#FFFFFF" stroke="#D97745" stroke-width="2" id="review" stroke-dasharray="10 7"/>
<rect x="609" y="486" width="6" height="118" rx="3" fill="#D97745" stroke="#D97745" stroke-width="0"/>
<text id="text-13" x="629" y="520" font-family="Arial,Helvetica,sans-serif" font-size="28" font-weight="700" fill="#18324A" text-anchor="start" data-container="review" data-padding="14">Abstain / review</text>
<text id="text-14" x="629" y="564" font-family="Arial,Helvetica,sans-serif" font-size="26" font-weight="400" fill="#536273" text-anchor="start" data-container="review" data-padding="14"><tspan x="629" dy="0">conceptual</tspan><tspan x="629" dy="32.5">not evaluated</tspan></text>
<rect x="875" y="470" width="250" height="150" rx="18" fill="#F5F7FB" stroke="#CBD5E1" stroke-width="2" id="outcome"/>
<rect x="889" y="486" width="6" height="118" rx="3" fill="#14877D" stroke="#14877D" stroke-width="0"/>
<text id="text-15" x="909" y="520" font-family="Arial,Helvetica,sans-serif" font-size="28" font-weight="700" fill="#18324A" text-anchor="start" data-container="outcome" data-padding="14">Outcome</text>
<text id="text-16" x="909" y="564" font-family="Arial,Helvetica,sans-serif" font-size="26" font-weight="400" fill="#536273" text-anchor="start" data-container="outcome" data-padding="14"><tspan x="909" dy="0">metrics</tspan></text>
<g opacity="0.88">
<g transform="translate(1043 538) scale(0.12109375 0.12109375)">



<rect x="96" y="70" width="320" height="370" rx="10" fill="#FFFFFF" stroke="#14877D" stroke-width="4"/>
<circle cx="121" cy="100" r="6" fill="#14877D" stroke="#14877D" stroke-width="1"/>
<line x1="141" y1="100" x2="396" y2="100" stroke="#14877D" stroke-width="4" stroke-linecap="round"/>
<circle cx="121" cy="132" r="6" fill="#14877D" stroke="#14877D" stroke-width="1"/>
<line x1="141" y1="132" x2="396" y2="132" stroke="#14877D" stroke-width="4" stroke-linecap="round"/>
<circle cx="121" cy="164" r="6" fill="#14877D" stroke="#14877D" stroke-width="1"/>
<line x1="141" y1="164" x2="396" y2="164" stroke="#14877D" stroke-width="4" stroke-linecap="round"/>
<path d="M 135 150 L 175 150 L 190 125 L 210 178 L 225 150 L 285 150" fill="none" stroke="#315EFB" stroke-width="7" stroke-linecap="round" stroke-linejoin="round"/>
<rect x="145" y="197" width="22" height="38" rx="3" fill="#315EFB" stroke="#315EFB" stroke-width="1"/>
<rect x="187" y="173" width="22" height="62" rx="3" fill="#315EFB" stroke="#315EFB" stroke-width="1"/>
<rect x="229" y="153" width="22" height="82" rx="3" fill="#315EFB" stroke="#315EFB" stroke-width="1"/>
<path d="M 140 294 Q 200 245 260 294 Q 200 343 140 294 Z" fill="none" stroke="#D97745" stroke-width="6" stroke-linecap="round" stroke-linejoin="round"/>
<circle cx="200" cy="294" r="16" fill="#FFFFFF" stroke="#D97745" stroke-width="5"/>
<path d="M 140 390 Q 200 330 260 390" fill="none" stroke="#14877D" stroke-width="8" stroke-linecap="round" stroke-linejoin="round"/>
<line x1="140" y1="390" x2="260" y2="390" stroke="#14877D" stroke-width="8" stroke-linecap="round"/>
</g>
</g>
<rect x="1160" y="470" width="200" height="150" rx="18" fill="#FFF3EC" stroke="#CBD5E1" stroke-width="2" id="fallback"/>
<rect x="1174" y="486" width="6" height="118" rx="3" fill="#D97745" stroke="#D97745" stroke-width="0"/>
<text id="text-17" x="1194" y="520" font-family="Arial,Helvetica,sans-serif" font-size="28" font-weight="700" fill="#18324A" text-anchor="start" data-container="fallback" data-padding="14">Fallback</text>
<text id="text-18" x="1194" y="564" font-family="Arial,Helvetica,sans-serif" font-size="26" font-weight="400" fill="#536273" text-anchor="start" data-container="fallback" data-padding="14"><tspan x="1194" dy="0">classical</tspan></text>
<g opacity="0.88">
<g transform="translate(1278 538) scale(0.12109375 0.12109375)">



<rect x="70" y="245" width="170" height="170" rx="10" fill="#FFFFFF" stroke="#315EFB" stroke-width="4"/>
<circle cx="95" cy="275" r="6" fill="#315EFB" stroke="#315EFB" stroke-width="1"/>
<line x1="115" y1="275" x2="220" y2="275" stroke="#315EFB" stroke-width="4" stroke-linecap="round"/>
<circle cx="95" cy="307" r="6" fill="#315EFB" stroke="#315EFB" stroke-width="1"/>
<line x1="115" y1="307" x2="220" y2="307" stroke="#315EFB" stroke-width="4" stroke-linecap="round"/>
<circle cx="95" cy="339" r="6" fill="#315EFB" stroke="#315EFB" stroke-width="1"/>
<line x1="115" y1="339" x2="220" y2="339" stroke="#315EFB" stroke-width="4" stroke-linecap="round"/>
<rect x="350.6" y="130.6" width="58.800000000000004" height="58.800000000000004" rx="8.4" fill="#EAF0FF" stroke="#14877D" stroke-width="4.2"/>
<line x1="340.1" y1="141.1" x2="350.6" y2="141.1" stroke="#14877D" stroke-width="3.1500000000000004" stroke-linecap="round"/>
<line x1="409.4" y1="141.1" x2="419.9" y2="141.1" stroke="#14877D" stroke-width="3.1500000000000004" stroke-linecap="round"/>
<line x1="340.1" y1="160.0" x2="350.6" y2="160.0" stroke="#14877D" stroke-width="3.1500000000000004" stroke-linecap="round"/>
<line x1="409.4" y1="160.0" x2="419.9" y2="160.0" stroke="#14877D" stroke-width="3.1500000000000004" stroke-linecap="round"/>
<line x1="340.1" y1="178.9" x2="350.6" y2="178.9" stroke="#14877D" stroke-width="3.1500000000000004" stroke-linecap="round"/>
<line x1="409.4" y1="178.9" x2="419.9" y2="178.9" stroke="#14877D" stroke-width="3.1500000000000004" stroke-linecap="round"/>
<circle cx="369.5" cy="151.6" r="4.2" fill="#14877D" stroke="#14877D" stroke-width="1"/>
<circle cx="390.5" cy="151.6" r="4.2" fill="#14877D" stroke="#14877D" stroke-width="1"/>
<line x1="369.5" y1="170.5" x2="390.5" y2="170.5" stroke="#14877D" stroke-width="3.1500000000000004" stroke-linecap="round"/>
<path d="M 240 330 C 330 330 330 265 330 220 C 330 180 330 150 342 150" fill="none" stroke="#D97745" stroke-width="7" stroke-linecap="round" stroke-linejoin="round"/>
<path d="M 376 215 C 365 290 315 380 240 380" fill="none" stroke="#315EFB" stroke-width="7" stroke-linecap="round" stroke-linejoin="round"/>
</g>
</g>
<text id="text-19" x="50" y="682" font-family="Arial,Helvetica,sans-serif" font-size="26" font-weight="400" fill="#536273" text-anchor="start" data-containment="free">Evidence boundary: quantum sampling can inform a candidate distribution; live labels, gates, certification, and fallback remain editable and classical.</text>
</svg>
