<svg xmlns="http://www.w3.org/2000/svg" xmlns:xlink="http://www.w3.org/1999/xlink" width="1200" height="600" viewBox="0 0 1200 600" role="img" aria-labelledby="title desc">
<title id="title">Evidence evolution</title>
<desc id="desc">Three development stages explain which scientific controls were added and why the frozen evidence remains bounded.</desc>
<defs><marker id="arrow" viewBox="0 0 10 10" refX="8" refY="5" markerWidth="7" markerHeight="7" orient="auto"><path d="M0 0 L10 5 L0 10 Z" fill="#536273"/></marker></defs>
<rect x="0" y="0" width="1200" height="600" fill="#FFFFFF"/>
<text id="text-1" x="35" y="45" font-family="Nimbus Sans,TeX Gyre Heros,Arial,Helvetica,sans-serif" font-size="35" font-weight="700" fill="#18324A" text-anchor="start" data-containment="free">Evidence evolution: each control answers an earlier failure</text>
<text id="text-2" x="35" y="80" font-family="Nimbus Sans,TeX Gyre Heros,Arial,Helvetica,sans-serif" font-size="26" font-weight="400" fill="#536273" text-anchor="start" data-containment="free">C1.0--C1.1 are development evidence; only C1.2 carries frozen held-out results.</text>
<line x1="380" y1="305" x2="420" y2="305" stroke="#536273" stroke-width="4" stroke-linecap="round" marker-end="url(#arrow)"/>
<line x1="780" y1="305" x2="820" y2="305" stroke="#536273" stroke-width="4" stroke-linecap="round" marker-end="url(#arrow)"/>
<rect x="30" y="120" width="350" height="350" rx="18" fill="#F5F7FB" stroke="#536273" stroke-width="3" id="c10"/>
<text id="text-3" x="205" y="160" font-family="Nimbus Sans,TeX Gyre Heros,Arial,Helvetica,sans-serif" font-size="29" font-weight="700" fill="#18324A" text-anchor="middle" data-container="c10" data-padding="15">C1.0  Classical ceiling</text>
<g transform="translate(135 178) scale(0.2734375 0.2734375)">



<rect x="70" y="120" width="150" height="220" rx="10" fill="#FFFFFF" stroke="#315EFB" stroke-width="4"/>
<circle cx="95" cy="150" r="6" fill="#315EFB" stroke="#315EFB" stroke-width="1"/>
<line x1="115" y1="150" x2="200" y2="150" stroke="#315EFB" stroke-width="4" stroke-linecap="round"/>
<circle cx="95" cy="182" r="6" fill="#315EFB" stroke="#315EFB" stroke-width="1"/>
<line x1="115" y1="182" x2="200" y2="182" stroke="#315EFB" stroke-width="4" stroke-linecap="round"/>
<circle cx="95" cy="214" r="6" fill="#315EFB" stroke="#315EFB" stroke-width="1"/>
<line x1="115" y1="214" x2="200" y2="214" stroke="#315EFB" stroke-width="4" stroke-linecap="round"/>
<rect x="292" y="120" width="150" height="220" rx="10" fill="#FFFFFF" stroke="#0F766E" stroke-width="4"/>
<circle cx="317" cy="150" r="6" fill="#0F766E" stroke="#0F766E" stroke-width="1"/>
<line x1="337" y1="150" x2="422" y2="150" stroke="#0F766E" stroke-width="4" stroke-linecap="round"/>
<circle cx="317" cy="182" r="6" fill="#0F766E" stroke="#0F766E" stroke-width="1"/>
<line x1="337" y1="182" x2="422" y2="182" stroke="#0F766E" stroke-width="4" stroke-linecap="round"/>
<circle cx="317" cy="214" r="6" fill="#0F766E" stroke="#0F766E" stroke-width="1"/>
<line x1="337" y1="214" x2="422" y2="214" stroke="#0F766E" stroke-width="4" stroke-linecap="round"/>
<circle cx="255" cy="305" r="70" fill="#FFFFFF" stroke="#18324A" stroke-width="7"/>
<line x1="307" y1="357" x2="382" y2="432" stroke="#18324A" stroke-width="14" stroke-linecap="round"/>
<line x1="215" y1="284" x2="294" y2="284" stroke="#A94F21" stroke-width="6" stroke-linecap="round"/>
<line x1="215" y1="316" x2="278" y2="316" stroke="#A94F21" stroke-width="6" stroke-linecap="round"/>
</g>
<text id="text-4" x="205" y="360" font-family="Nimbus Sans,TeX Gyre Heros,Arial,Helvetica,sans-serif" font-size="27" font-weight="700" fill="#536273" text-anchor="middle" data-container="c10" data-padding="10"><tspan x="205" dy="0">Strong search removed</tspan><tspan x="205" dy="33.75">useful headroom.</tspan><tspan x="205" dy="33.75">Add credible alternatives.</tspan></text>
<rect x="420" y="120" width="350" height="350" rx="18" fill="#FFF3EC" stroke="#A94F21" stroke-width="3" id="c11"/>
<text id="text-5" x="595" y="160" font-family="Nimbus Sans,TeX Gyre Heros,Arial,Helvetica,sans-serif" font-size="29" font-weight="700" fill="#18324A" text-anchor="middle" data-container="c11" data-padding="15">C1.1  Attractive proxy</text>
<g transform="translate(525 178) scale(0.2734375 0.2734375)">



<circle cx="95" cy="150" r="12" fill="#FFFFFF" stroke="#315EFB" stroke-width="4"/>
<line x1="107" y1="150" x2="145" y2="150" stroke="#CBD5E1" stroke-width="3" stroke-linecap="round"/>
<line x1="95" y1="162" x2="95" y2="200" stroke="#CBD5E1" stroke-width="3" stroke-linecap="round"/>
<circle cx="95" cy="212" r="12" fill="#FFFFFF" stroke="#CBD5E1" stroke-width="4"/>
<line x1="107" y1="212" x2="145" y2="212" stroke="#CBD5E1" stroke-width="3" stroke-linecap="round"/>
<line x1="95" y1="224" x2="95" y2="262" stroke="#CBD5E1" stroke-width="3" stroke-linecap="round"/>
<circle cx="95" cy="274" r="12" fill="#FFFFFF" stroke="#CBD5E1" stroke-width="4"/>
<line x1="107" y1="274" x2="145" y2="274" stroke="#CBD5E1" stroke-width="3" stroke-linecap="round"/>
<line x1="95" y1="286" x2="95" y2="324" stroke="#CBD5E1" stroke-width="3" stroke-linecap="round"/>
<circle cx="95" cy="336" r="12" fill="#FFFFFF" stroke="#315EFB" stroke-width="4"/>
<line x1="107" y1="336" x2="145" y2="336" stroke="#CBD5E1" stroke-width="3" stroke-linecap="round"/>
<circle cx="157" cy="150" r="12" fill="#FFFFFF" stroke="#CBD5E1" stroke-width="4"/>
<line x1="169" y1="150" x2="207" y2="150" stroke="#CBD5E1" stroke-width="3" stroke-linecap="round"/>
<line x1="157" y1="162" x2="157" y2="200" stroke="#CBD5E1" stroke-width="3" stroke-linecap="round"/>
<circle cx="157" cy="212" r="12" fill="#FFFFFF" stroke="#CBD5E1" stroke-width="4"/>
<line x1="169" y1="212" x2="207" y2="212" stroke="#CBD5E1" stroke-width="3" stroke-linecap="round"/>
<line x1="157" y1="224" x2="157" y2="262" stroke="#CBD5E1" stroke-width="3" stroke-linecap="round"/>
<circle cx="157" cy="274" r="12" fill="#FFFFFF" stroke="#315EFB" stroke-width="4"/>
<line x1="169" y1="274" x2="207" y2="274" stroke="#CBD5E1" stroke-width="3" stroke-linecap="round"/>
<line x1="157" y1="286" x2="157" y2="324" stroke="#CBD5E1" stroke-width="3" stroke-linecap="round"/>
<circle cx="157" cy="336" r="12" fill="#FFFFFF" stroke="#CBD5E1" stroke-width="4"/>
<line x1="169" y1="336" x2="207" y2="336" stroke="#CBD5E1" stroke-width="3" stroke-linecap="round"/>
<circle cx="219" cy="150" r="12" fill="#FFFFFF" stroke="#CBD5E1" stroke-width="4"/>
<line x1="231" y1="150" x2="269" y2="150" stroke="#CBD5E1" stroke-width="3" stroke-linecap="round"/>
<line x1="219" y1="162" x2="219" y2="200" stroke="#CBD5E1" stroke-width="3" stroke-linecap="round"/>
<circle cx="219" cy="212" r="12" fill="#FFFFFF" stroke="#315EFB" stroke-width="4"/>
<line x1="231" y1="212" x2="269" y2="212" stroke="#CBD5E1" stroke-width="3" stroke-linecap="round"/>
<line x1="219" y1="224" x2="219" y2="262" stroke="#CBD5E1" stroke-width="3" stroke-linecap="round"/>
<circle cx="219" cy="274" r="12" fill="#FFFFFF" stroke="#CBD5E1" stroke-width="4"/>
<line x1="231" y1="274" x2="269" y2="274" stroke="#CBD5E1" stroke-width="3" stroke-linecap="round"/>
<line x1="219" y1="286" x2="219" y2="324" stroke="#CBD5E1" stroke-width="3" stroke-linecap="round"/>
<circle cx="219" cy="336" r="12" fill="#FFFFFF" stroke="#CBD5E1" stroke-width="4"/>
<line x1="231" y1="336" x2="269" y2="336" stroke="#CBD5E1" stroke-width="3" stroke-linecap="round"/>
<circle cx="281" cy="150" r="12" fill="#FFFFFF" stroke="#315EFB" stroke-width="4"/>
<line x1="281" y1="162" x2="281" y2="200" stroke="#CBD5E1" stroke-width="3" stroke-linecap="round"/>
<circle cx="281" cy="212" r="12" fill="#FFFFFF" stroke="#CBD5E1" stroke-width="4"/>
<line x1="281" y1="224" x2="281" y2="262" stroke="#CBD5E1" stroke-width="3" stroke-linecap="round"/>
<circle cx="281" cy="274" r="12" fill="#FFFFFF" stroke="#CBD5E1" stroke-width="4"/>
<line x1="281" y1="286" x2="281" y2="324" stroke="#CBD5E1" stroke-width="3" stroke-linecap="round"/>
<circle cx="281" cy="336" r="12" fill="#FFFFFF" stroke="#315EFB" stroke-width="4"/>
<line x1="330" y1="190" x2="452" y2="190" stroke="#0F766E" stroke-width="5" stroke-linecap="round"/>
<line x1="330" y1="250" x2="452" y2="250" stroke="#0F766E" stroke-width="5" stroke-linecap="round"/>
<line x1="330" y1="310" x2="452" y2="310" stroke="#0F766E" stroke-width="5" stroke-linecap="round"/>
<circle cx="360" cy="190" r="13" fill="#FFFFFF" stroke="#0F766E" stroke-width="4"/>
<circle cx="360" cy="310" r="13" fill="#FFFFFF" stroke="#0F766E" stroke-width="4"/>
<circle cx="420" cy="190" r="13" fill="#FFFFFF" stroke="#0F766E" stroke-width="4"/>
<circle cx="420" cy="310" r="13" fill="#FFFFFF" stroke="#0F766E" stroke-width="4"/>
<rect x="376" y="228" width="28" height="44" rx="5" fill="#FFF3EC" stroke="#A94F21" stroke-width="4"/>
</g>
<text id="text-6" x="595" y="360" font-family="Nimbus Sans,TeX Gyre Heros,Arial,Helvetica,sans-serif" font-size="27" font-weight="700" fill="#536273" text-anchor="middle" data-container="c11" data-padding="10"><tspan x="595" dy="0">Concentration appeared;</tspan><tspan x="595" dy="33.75">feasibility + ambiguity</tspan><tspan x="595" dy="33.75">were not established.</tspan></text>
<rect x="820" y="120" width="350" height="350" rx="18" fill="#EAF0FF" stroke="#0F766E" stroke-width="3" id="c12"/>
<text id="text-7" x="995" y="160" font-family="Nimbus Sans,TeX Gyre Heros,Arial,Helvetica,sans-serif" font-size="29" font-weight="700" fill="#18324A" text-anchor="middle" data-container="c12" data-padding="15">C1.2  Frozen audit</text>
<g transform="translate(925 178) scale(0.2734375 0.2734375)">



<circle cx="115" cy="105" r="34" fill="#FFFFFF" stroke="#0F766E" stroke-width="6"/>
<circle cx="256" cy="105" r="34" fill="#FFFFFF" stroke="#315EFB" stroke-width="6"/>
<circle cx="397" cy="105" r="34" fill="#FFFFFF" stroke="#A94F21" stroke-width="6"/>
<path d="M 75 165 L 437 165 L 320 330 L 320 402 L 192 402 L 192 330 Z" fill="#EAF0FF" stroke="#18324A" stroke-width="6" stroke-linecap="round" stroke-linejoin="round"/>
<line x1="115" y1="140" x2="180" y2="220" stroke="#0F766E" stroke-width="5" stroke-linecap="round"/>
<line x1="256" y1="140" x2="256" y2="250" stroke="#315EFB" stroke-width="5" stroke-linecap="round"/>
<line x1="397" y1="140" x2="332" y2="220" stroke="#A94F21" stroke-width="5" stroke-linecap="round"/>
</g>
<text id="text-8" x="995" y="360" font-family="Nimbus Sans,TeX Gyre Heros,Arial,Helvetica,sans-serif" font-size="27" font-weight="700" fill="#536273" text-anchor="middle" data-container="c12" data-padding="10"><tspan x="995" dy="0">32 held out; 30/32 strict</tspan><tspan x="995" dy="33.75">9/32 retrospective gate</tspan><tspan x="995" dy="33.75">704 exact shared fields</tspan></text>
<rect x="30" y="485" width="1140" height="95" rx="12" fill="#FFFFFF" stroke="#8B4050" stroke-width="3" id="ceiling" stroke-dasharray="10 7"/>
<text id="text-9" x="600" y="520" font-family="Nimbus Sans,TeX Gyre Heros,Arial,Helvetica,sans-serif" font-size="26" font-weight="700" fill="#8B4050" text-anchor="middle" data-container="ceiling" data-padding="8">Evidence ceiling: conditional noiseless statevector evidence on retained cores</text>
<text id="text-10" x="600" y="555" font-family="Nimbus Sans,TeX Gyre Heros,Arial,Helvetica,sans-serif" font-size="25" font-weight="400" fill="#536273" text-anchor="middle" data-container="ceiling" data-padding="8">No QPU, wall-clock, scale, application, security, fairness, or welfare claim</text>
</svg>
